<svg width="24" height="22" viewBox="0 0 24 22" fill="none" xmlns="http://www.w3.org/2000/svg">
<path d="M7.94882 4.73077C8.41896 3.8895 8.88911 3.04824 9.35925 2.20697C6.93082 1.7972 4.50239 1.38743 2.07396 0.977657C2.24202 1.92661 2.41008 2.87557 2.57814 3.82453C2.60172 3.95763 2.62529 4.09072 2.64886 4.22382C3.07315 6.61955 3.49743 9.01528 3.92172 11.411C3.94529 11.5441 3.96886 11.6772 3.99243 11.8103C4.05837 11.6923 4.12431 11.5743 4.19025 11.4563C5.37717 9.33247 6.56409 7.20861 7.751 5.08475C7.81694 4.96676 7.88288 4.84876 7.94882 4.73077Z" fill="white"/>
<path d="M19.7591 10.8706C21.0368 10.2211 22.3146 9.57165 23.5924 8.92219C21.0273 6.36979 18.4622 3.81739 15.8971 1.26499C15.254 2.54597 14.6109 3.82695 13.9677 5.10792C13.8699 5.30274 13.7721 5.49756 13.6743 5.69237C11.9138 9.19906 10.1533 12.7057 8.39278 16.2124C8.29498 16.4072 8.19717 16.6021 8.09937 16.7969C8.29369 16.6981 8.48802 16.5993 8.68235 16.5006C12.1803 14.7227 15.6782 12.9448 19.1761 11.1669C19.3704 11.0681 19.5647 10.9693 19.7591 10.8706Z" fill="white"/>
</svg>
