<svg width="23" height="23" viewBox="0 0 23 23" fill="none" xmlns="http://www.w3.org/2000/svg">
<path d="M4.79163 14.375H3.83329C3.32496 14.375 2.83745 14.173 2.478 13.8136C2.11856 13.4541 1.91663 12.9666 1.91663 12.4583V3.83329C1.91663 3.32496 2.11856 2.83745 2.478 2.478C2.83745 2.11856 3.32496 1.91663 3.83329 1.91663H12.4583C12.9666 1.91663 13.4541 2.11856 13.8136 2.478C14.173 2.83745 14.375 3.32496 14.375 3.83329V4.79163M10.5416 8.62496H19.1666C20.2252 8.62496 21.0833 9.48308 21.0833 10.5416V19.1666C21.0833 20.2252 20.2252 21.0833 19.1666 21.0833H10.5416C9.48308 21.0833 8.62496 20.2252 8.62496 19.1666V10.5416C8.62496 9.48308 9.48308 8.62496 10.5416 8.62496Z" stroke="#676767" stroke-width="1.91667" stroke-linecap="round" stroke-linejoin="round"/>
</svg>
