<svg width="25" height="24" viewBox="0 0 25 24" fill="none" xmlns="http://www.w3.org/2000/svg">
<g clip-path="url(#clip0_18_1577)">
<path d="M17.0885 21V19C17.0885 17.9391 16.667 16.9217 15.9169 16.1716C15.1668 15.4214 14.1493 15 13.0885 15H5.08847C4.0276 15 3.01019 15.4214 2.26004 16.1716C1.5099 16.9217 1.08847 17.9391 1.08847 19V21M23.0885 21V19C23.0878 18.1137 22.7928 17.2528 22.2498 16.5523C21.7068 15.8519 20.9466 15.3516 20.0885 15.13M16.0885 3.13C16.9489 3.3503 17.7115 3.8507 18.2561 4.55231C18.8007 5.25392 19.0963 6.11683 19.0963 7.005C19.0963 7.89317 18.8007 8.75608 18.2561 9.45769C17.7115 10.1593 16.9489 10.6597 16.0885 10.88M13.0885 7C13.0885 9.20914 11.2976 11 9.08847 11C6.87933 11 5.08847 9.20914 5.08847 7C5.08847 4.79086 6.87933 3 9.08847 3C11.2976 3 13.0885 4.79086 13.0885 7Z" stroke="#A76CF0" stroke-width="2" stroke-linecap="round" stroke-linejoin="round"/>
</g>
<defs>
<clipPath id="clip0_18_1577">
<rect width="24" height="24" fill="white" transform="translate(0.0884705)"/>
</clipPath>
</defs>
</svg>
