<svg width="30" height="16" viewBox="0 0 30 16" fill="none" xmlns="http://www.w3.org/2000/svg">
<path d="M3.644 8C3.644 9.2642 4.11807 10.3407 5.06622 11.2296C6.03412 12.1185 7.16005 12.563 8.444 12.563C9.72795 12.563 10.844 12.1185 11.7921 11.2296C12.76 10.3407 13.244 9.2642 13.244 8C13.244 6.7358 12.76 5.65926 11.7921 4.77037C10.844 3.88148 9.72795 3.43704 8.444 3.43704C7.16005 3.43704 6.03412 3.88148 5.06622 4.77037C4.11807 5.65926 3.644 6.7358 3.644 8ZM0.0884399 8C0.0884399 5.7679 0.91807 3.88148 2.57733 2.34074C4.23659 0.780247 6.19215 0 8.444 0C10.6958 0 12.6514 0.780247 14.3107 2.34074C15.9699 3.88148 16.7996 5.7679 16.7996 8C16.7996 10.2321 15.9699 12.1284 14.3107 13.6889C12.6514 15.2296 10.6958 16 8.444 16C6.19215 16 4.23659 15.2296 2.57733 13.6889C0.91807 12.1284 0.0884399 10.2321 0.0884399 8Z" fill="#4785EA"/>
<path d="M16.756 8C16.756 9.2642 17.23 10.3407 18.1782 11.2296C19.1461 12.1185 20.272 12.563 21.556 12.563C22.8399 12.563 23.956 12.1185 24.9041 11.2296C25.872 10.3407 26.356 9.2642 26.356 8C26.356 6.7358 25.872 5.65926 24.9041 4.77037C23.956 3.88148 22.8399 3.43704 21.556 3.43704C20.272 3.43704 19.1461 3.88148 18.1782 4.77037C17.23 5.65926 16.756 6.7358 16.756 8ZM13.2004 8C13.2004 5.7679 14.03 3.88148 15.6893 2.34074C17.3486 0.780247 19.3041 0 21.556 0C23.8078 0 25.7634 0.780247 27.4226 2.34074C29.0819 3.88148 29.9115 5.7679 29.9115 8C29.9115 10.2321 29.0819 12.1284 27.4226 13.6889C25.7634 15.2296 23.8078 16 21.556 16C19.3041 16 17.3486 15.2296 15.6893 13.6889C14.03 12.1284 13.2004 10.2321 13.2004 8Z" fill="#4785EA"/>
</svg>
