<svg width="37" height="36" viewBox="0 0 37 36" fill="none" xmlns="http://www.w3.org/2000/svg">
<path d="M19.0915 19.17C18.9865 19.155 18.8515 19.155 18.7315 19.17C16.0915 19.08 13.9915 16.92 13.9915 14.265C13.9915 11.55 16.1815 9.34497 18.9115 9.34497C21.6265 9.34497 23.8315 11.55 23.8315 14.265C23.8165 16.92 21.7315 19.08 19.0915 19.17Z" stroke="#7D7D7D" stroke-width="3" stroke-linecap="round" stroke-linejoin="round"/>
<path d="M29.0215 29.0701C26.3515 31.5151 22.8115 33.0001 18.9115 33.0001C15.0115 33.0001 11.4715 31.5151 8.80151 29.0701C8.95151 27.6601 9.85151 26.2801 11.4565 25.2001C15.5665 22.4701 22.2865 22.4701 26.3665 25.2001C27.9715 26.2801 28.8715 27.6601 29.0215 29.0701Z" stroke="#7D7D7D" stroke-width="3" stroke-linecap="round" stroke-linejoin="round"/>
<path d="M18.9115 33C27.1958 33 33.9115 26.2843 33.9115 18C33.9115 9.71573 27.1958 3 18.9115 3C10.6272 3 3.9115 9.71573 3.9115 18C3.9115 26.2843 10.6272 33 18.9115 33Z" stroke="#7D7D7D" stroke-width="3" stroke-linecap="round" stroke-linejoin="round"/>
</svg>
